<svg height="48pt" viewBox="0 0 48 48" width="48pt" xmlns="http://www.w3.org/2000/svg" xmlns:xlink="http://www.w3.org/1999/xlink"><linearGradient id="a"><stop offset="0" stop-color="#4776e6"/><stop offset=".98260869565" stop-color="#8e54e9"/></linearGradient><linearGradient id="b" gradientUnits="userSpaceOnUse" x1="7.5" x2="40.5" xlink:href="#a" y1="24" y2="24"/><linearGradient id="c" gradientUnits="userSpaceOnUse" x1="0" x2="48" xlink:href="#a" y1="24" y2="24"/><path d="m22.216 7.595c-6.827.771-12.489 5.7-14.196 12.34-.373 1.439-.328 1.824.294 3.093.904 1.835 2.339 3.342 3.956 4.158 1.22.623 2.079.816 3.786.873 1.616.056 2.769-.08 4.205-.487l.587-.17v-2.233c0-2.458.181-4.101.645-5.892 1.164-4.487 4.001-7.637 7.776-8.622 1.096-.295 2.633-.408 3.492-.261.825.136.746.034-.655-.759-2.939-1.677-6.533-2.414-9.89-2.04zm8.613 3.501c-2.091.295-4.115 1.372-5.369 2.856-1.096 1.314-1.696 2.425-2.34 4.374l-.441 1.303 1.436.804c2.532 1.416 4.159 2.64 5.742 4.272 2.102 2.198 3.243 4.43 3.56 7.014.271 2.232-.43 4.872-1.752 6.605-.226.295-.362.533-.316.533.18 0 2-1.144 2.825-1.779 1.097-.838 2.713-2.572 3.459-3.705 2.272-3.422 3.244-7.49 2.735-11.354-.509-3.852-2.102-7.07-4.849-9.801-.78-.782-1.074-.997-1.413-1.054-.791-.124-2.565-.169-3.277-.068zm-23.261 13.597c.147 4.306 1.718 7.909 4.803 11.003 1.944 1.937 3.945 3.195 6.375 4.011 2.023.668 2.826.793 5.278.793 2.397 0 3.176-.113 5.166-.748 1.187-.385 1.356-.544 2.181-1.983s1.153-2.583 1.21-4.237c.056-1.202.022-1.575-.181-2.369-.452-1.824-1.605-3.739-3.154-5.268l-.678-.658-1.062.646c-2.397 1.496-5.403 2.731-7.72 3.184-1.503.295-3.877.272-5.177-.045-3.097-.771-5.425-2.618-6.759-5.382l-.35-.703z" fill="url(#b)" fill-rule="evenodd"/><path d="m43.01 17.78c-.342-1.049.231-2.178 1.28-2.52 1.049-.342 2.178.231 2.52 1.28.79 2.4 1.19 4.91 1.19 7.43 0 8.35-4.34 16.13-11.46 20.49-3.76 2.31-8.1 3.54-12.51 3.54-8.35 0-16.13-4.34-20.49-11.46-2.31-3.76-3.54-8.09-3.54-12.51 0-8.35 4.34-16.13 11.46-20.49 3.76-2.31 8.09-3.54 12.51-3.54 5.64 0 11.11 1.98 15.44 5.59.844.712.956 1.978.25 2.825-.706.847-1.97.957-2.82.245-3.61-3.01-8.16-4.66-12.87-4.66-3.67 0-7.28 1.02-10.42 2.95-5.93 3.64-9.55 10.12-9.55 17.08 0 3.68 1.02 7.28 2.95 10.42 3.64 5.93 10.12 9.55 17.08 9.55 3.67 0 7.28-1.02 10.42-2.95 5.93-3.64 9.55-10.12 9.55-17.08 0-2.1-.33-4.19-.99-6.19z" fill="url(#c)"/></svg>